<?xml version="1.0" encoding="utf-8"?>
<!-- Generator: Adobe Illustrator 26.0.3, SVG Export Plug-In . SVG Version: 6.00 Build 0)  -->
<svg version="1.0" id="Layer_1" xmlns="http://www.w3.org/2000/svg" xmlns:xlink="http://www.w3.org/1999/xlink" x="0px" y="0px"
	 viewBox="0 0 612 792" style="enable-background:new 0 0 612 792;" xml:space="preserve">
<style type="text/css">
	.st0{fill:#FFFFFF;stroke:#000000;stroke-miterlimit:10;}
	.st1{fill:none;stroke:#000000;stroke-miterlimit:10;}
</style>
<circle class="st0" cx="120.98" cy="282.23" r="10.49"/>
<circle class="st0" cx="197.89" cy="282.23" r="10.49"/>
<circle class="st0" cx="274.81" cy="282.23" r="10.49"/>
<circle class="st0" cx="120.98" cy="358.76" r="10.49"/>
<circle class="st0" cx="197.89" cy="358.76" r="10.49"/>
<circle class="st0" cx="274.81" cy="358.76" r="10.49"/>
<path class="st1" d="M304.69,402.7H91.09c-7.76,0-14.05-6.29-14.05-14.05V252.34c0-7.76,6.29-14.05,14.05-14.05h213.6
	c7.76,0,14.05,6.29,14.05,14.05v136.31C318.74,396.41,312.45,402.7,304.69,402.7z"/>
<circle class="st1" cx="91.22" cy="252.46" r="4.82"/>
<circle class="st1" cx="91.22" cy="388.52" r="4.82"/>
<circle class="st1" cx="304.57" cy="388.67" r="4.82"/>
<circle class="st1" cx="304.71" cy="252.32" r="4.82"/>
<g>
</g>
<g>
</g>
<g>
</g>
<g>
</g>
<g>
</g>
<g>
</g>
</svg>
