M48
; DRILL file {KiCad (6.0.1)} date Mon May  9 03:02:39 2022
; FORMAT={-:-/ absolute / inch / decimal}
; #@! TF.CreationDate,2022-05-09T03:02:39-04:00
; #@! TF.GenerationSoftware,Kicad,Pcbnew,(6.0.1)
; #@! TF.FileFunction,Plated,1,2,PTH
FMAT,2
INCH
; #@! TA.AperFunction,Plated,PTH,ComponentDrill
T1C0.0394
; #@! TA.AperFunction,Plated,PTH,ComponentDrill
T2C0.0433
; #@! TA.AperFunction,Plated,PTH,ComponentDrill
T3C0.0591
%
G90
G05
T1
X4.8406Y-2.2539
X4.8406Y-2.8248
X4.8425Y-1.1909
X4.8425Y-1.7618
X4.939Y-2.8248
X4.9409Y-1.7618
X5.0374Y-2.2539
X5.0374Y-2.8248
X5.0394Y-1.1909
X5.0394Y-1.7618
X5.9055Y-1.1909
X5.9055Y-1.7618
X5.9055Y-2.2539
X5.9055Y-2.8248
X6.0039Y-1.7618
X6.0039Y-2.8248
X6.1024Y-1.1909
X6.1024Y-1.7618
X6.1024Y-2.2539
X6.1024Y-2.8248
X6.9685Y-1.1909
X6.9685Y-1.7618
X6.9685Y-2.2539
X6.9685Y-2.8248
X7.0669Y-1.7618
X7.0669Y-2.8248
X7.1654Y-1.1909
X7.1654Y-1.7618
X7.1654Y-2.2539
X7.1654Y-2.8248
T2
X5.7039Y-1.3201
X5.7039Y-1.4201
X5.7039Y-1.5201
X5.7039Y-1.6201
X5.7039Y-1.7201
X5.7039Y-1.8201
X5.7039Y-1.9201
X5.7039Y-2.0201
X5.7039Y-2.1201
X5.7039Y-2.2201
X5.7039Y-2.3201
X5.7039Y-2.4201
X6.3039Y-1.3201
X6.3039Y-1.4201
X6.3039Y-1.5201
X6.3039Y-1.6201
X6.3039Y-1.7201
X6.3039Y-1.8201
X6.3039Y-1.9201
X6.3039Y-2.0201
X6.3039Y-2.1201
X6.3039Y-2.2201
X6.3039Y-2.3201
X6.3039Y-2.4201
T3
G00X4.7185Y-2.5551
M15
G01X4.7185Y-2.5039
M16
G05
G00X4.7205Y-1.4921
M15
G01X4.7205Y-1.4409
M16
G05
G00X5.1594Y-2.5551
M15
G01X5.1594Y-2.5039
M16
G05
G00X5.1614Y-1.4921
M15
G01X5.1614Y-1.4409
M16
G05
G00X5.7835Y-1.4921
M15
G01X5.7835Y-1.4409
M16
G05
G00X5.7835Y-2.5551
M15
G01X5.7835Y-2.5039
M16
G05
G00X6.2244Y-1.4921
M15
G01X6.2244Y-1.4409
M16
G05
G00X6.2244Y-2.5551
M15
G01X6.2244Y-2.5039
M16
G05
G00X6.8465Y-1.4921
M15
G01X6.8465Y-1.4409
M16
G05
G00X6.8465Y-2.5551
M15
G01X6.8465Y-2.5039
M16
G05
G00X7.2874Y-1.4921
M15
G01X7.2874Y-1.4409
M16
G05
G00X7.2874Y-2.5551
M15
G01X7.2874Y-2.5039
M16
G05
T0
M30
