%TF.GenerationSoftware,KiCad,Pcbnew,(6.0.1)*%
%TF.CreationDate,2022-05-09T03:02:38-04:00*%
%TF.ProjectId,RotaryEncoderHorror,526f7461-7279-4456-9e63-6f646572486f,rev?*%
%TF.SameCoordinates,Original*%
%TF.FileFunction,Copper,L1,Top*%
%TF.FilePolarity,Positive*%
%FSLAX46Y46*%
G04 Gerber Fmt 4.6, Leading zero omitted, Abs format (unit mm)*
G04 Created by KiCad (PCBNEW (6.0.1)) date 2022-05-09 03:02:38*
%MOMM*%
%LPD*%
G01*
G04 APERTURE LIST*
%TA.AperFunction,ComponentPad*%
%ADD10C,2.000000*%
%TD*%
%TA.AperFunction,ComponentPad*%
%ADD11R,2.000000X3.200000*%
%TD*%
%TA.AperFunction,ComponentPad*%
%ADD12R,2.000000X2.000000*%
%TD*%
%TA.AperFunction,ComponentPad*%
%ADD13R,1.600000X1.600000*%
%TD*%
%TA.AperFunction,ComponentPad*%
%ADD14C,1.600000*%
%TD*%
%TA.AperFunction,Conductor*%
%ADD15C,0.250000*%
%TD*%
G04 APERTURE END LIST*
D10*
%TO.P,SW6,S2,S2*%
%TO.N,unconnected-(SW6-PadS2)*%
X177000000Y-57250000D03*
%TO.P,SW6,S1,S1*%
%TO.N,unconnected-(SW6-PadS1)*%
X182000000Y-57250000D03*
D11*
%TO.P,SW6,MP*%
%TO.N,N/C*%
X185100000Y-64250000D03*
X173900000Y-64250000D03*
D10*
%TO.P,SW6,C,C*%
%TO.N,GND*%
X179500000Y-71750000D03*
%TO.P,SW6,B,B*%
%TO.N,/ROT_12*%
X182000000Y-71750000D03*
D12*
%TO.P,SW6,A,A*%
%TO.N,/ROT_11*%
X177000000Y-71750000D03*
%TD*%
%TO.P,SW3,A,A*%
%TO.N,/ROT_5*%
X122950000Y-71750000D03*
D10*
%TO.P,SW3,B,B*%
%TO.N,/ROT_6*%
X127950000Y-71750000D03*
%TO.P,SW3,C,C*%
%TO.N,GND*%
X125450000Y-71750000D03*
D11*
%TO.P,SW3,MP*%
%TO.N,N/C*%
X119850000Y-64250000D03*
X131050000Y-64250000D03*
D10*
%TO.P,SW3,S1,S1*%
%TO.N,unconnected-(SW3-PadS1)*%
X127950000Y-57250000D03*
%TO.P,SW3,S2,S2*%
%TO.N,unconnected-(SW3-PadS2)*%
X122950000Y-57250000D03*
%TD*%
%TO.P,SW4,S2,S2*%
%TO.N,unconnected-(SW4-PadS2)*%
X150000000Y-57250000D03*
%TO.P,SW4,S1,S1*%
%TO.N,unconnected-(SW4-PadS1)*%
X155000000Y-57250000D03*
D11*
%TO.P,SW4,MP*%
%TO.N,N/C*%
X146900000Y-64250000D03*
X158100000Y-64250000D03*
D10*
%TO.P,SW4,C,C*%
%TO.N,GND*%
X152500000Y-71750000D03*
%TO.P,SW4,B,B*%
%TO.N,/ROT_8*%
X155000000Y-71750000D03*
D12*
%TO.P,SW4,A,A*%
%TO.N,/ROT_7*%
X150000000Y-71750000D03*
%TD*%
%TO.P,SW5,A,A*%
%TO.N,/ROT_9*%
X177000000Y-44750000D03*
D10*
%TO.P,SW5,B,B*%
%TO.N,/ROT_10*%
X182000000Y-44750000D03*
%TO.P,SW5,C,C*%
%TO.N,GND*%
X179500000Y-44750000D03*
D11*
%TO.P,SW5,MP*%
%TO.N,N/C*%
X185100000Y-37250000D03*
X173900000Y-37250000D03*
D10*
%TO.P,SW5,S1,S1*%
%TO.N,unconnected-(SW5-PadS1)*%
X182000000Y-30250000D03*
%TO.P,SW5,S2,S2*%
%TO.N,unconnected-(SW5-PadS2)*%
X177000000Y-30250000D03*
%TD*%
D12*
%TO.P,SW1,A,A*%
%TO.N,/ROT_1*%
X123000000Y-44750000D03*
D10*
%TO.P,SW1,B,B*%
%TO.N,/ROT_2*%
X128000000Y-44750000D03*
%TO.P,SW1,C,C*%
%TO.N,GND*%
X125500000Y-44750000D03*
D11*
%TO.P,SW1,MP*%
%TO.N,N/C*%
X119900000Y-37250000D03*
X131100000Y-37250000D03*
D10*
%TO.P,SW1,S1,S1*%
%TO.N,unconnected-(SW1-PadS1)*%
X128000000Y-30250000D03*
%TO.P,SW1,S2,S2*%
%TO.N,unconnected-(SW1-PadS2)*%
X123000000Y-30250000D03*
%TD*%
D12*
%TO.P,SW2,A,A*%
%TO.N,/ROT_3*%
X150000000Y-44750000D03*
D10*
%TO.P,SW2,B,B*%
%TO.N,/ROT_4*%
X155000000Y-44750000D03*
%TO.P,SW2,C,C*%
%TO.N,GND*%
X152500000Y-44750000D03*
D11*
%TO.P,SW2,MP*%
%TO.N,N/C*%
X158100000Y-37250000D03*
X146900000Y-37250000D03*
D10*
%TO.P,SW2,S1,S1*%
%TO.N,unconnected-(SW2-PadS1)*%
X155000000Y-30250000D03*
%TO.P,SW2,S2,S2*%
%TO.N,unconnected-(SW2-PadS2)*%
X150000000Y-30250000D03*
%TD*%
D13*
%TO.P,U1,1,TX*%
%TO.N,unconnected-(U1-Pad1)*%
X160120000Y-33530000D03*
D14*
%TO.P,U1,2,RX*%
%TO.N,unconnected-(U1-Pad2)*%
X160120000Y-36070000D03*
%TO.P,U1,3,GND*%
%TO.N,GND*%
X160120000Y-38610000D03*
%TO.P,U1,4,GND*%
X160120000Y-41150000D03*
%TO.P,U1,5,SDA*%
%TO.N,unconnected-(U1-Pad5)*%
X160120000Y-43690000D03*
%TO.P,U1,6,SCL*%
%TO.N,unconnected-(U1-Pad6)*%
X160120000Y-46230000D03*
%TO.P,U1,7,D4*%
%TO.N,/ROT_7*%
X160120000Y-48770000D03*
%TO.P,U1,8,C6*%
%TO.N,/ROT_8*%
X160120000Y-51310000D03*
%TO.P,U1,9,D7*%
%TO.N,/ROT_9*%
X160120000Y-53850000D03*
%TO.P,U1,10,E6*%
%TO.N,/ROT_10*%
X160120000Y-56390000D03*
%TO.P,U1,11,B4*%
%TO.N,/ROT_12*%
X160120000Y-58930000D03*
%TO.P,U1,12,B5*%
%TO.N,/ROT_11*%
X160120000Y-61470000D03*
%TO.P,U1,13,B6*%
%TO.N,unconnected-(U1-Pad13)*%
X144880000Y-61470000D03*
%TO.P,U1,14,B2*%
%TO.N,unconnected-(U1-Pad14)*%
X144880000Y-58930000D03*
%TO.P,U1,15,B3*%
%TO.N,/ROT_6*%
X144880000Y-56390000D03*
%TO.P,U1,16,B1*%
%TO.N,/ROT_5*%
X144880000Y-53850000D03*
%TO.P,U1,17,F7*%
%TO.N,/ROT_4*%
X144880000Y-51310000D03*
%TO.P,U1,18,F6*%
%TO.N,/ROT_3*%
X144880000Y-48770000D03*
%TO.P,U1,19,F5*%
%TO.N,/ROT_1*%
X144880000Y-46230000D03*
%TO.P,U1,20,F4*%
%TO.N,/ROT_2*%
X144880000Y-43690000D03*
%TO.P,U1,21,VCC*%
%TO.N,+3V3*%
X144880000Y-41150000D03*
%TO.P,U1,22,RST*%
%TO.N,unconnected-(U1-Pad22)*%
X144880000Y-38610000D03*
%TO.P,U1,23,GND*%
%TO.N,GND*%
X144880000Y-36070000D03*
%TO.P,U1,24,RAW*%
%TO.N,unconnected-(U1-Pad24)*%
X144880000Y-33530000D03*
%TD*%
D15*
%TO.N,/ROT_11*%
X177000000Y-62700000D02*
X177000000Y-71750000D01*
X175770000Y-61470000D02*
X177000000Y-62700000D01*
X160120000Y-61470000D02*
X175770000Y-61470000D01*
%TO.N,/ROT_12*%
X182000000Y-64950000D02*
X182000000Y-71750000D01*
X175980000Y-58930000D02*
X182000000Y-64950000D01*
X160120000Y-58930000D02*
X175980000Y-58930000D01*
%TO.N,/ROT_10*%
X160120000Y-56390000D02*
X170360000Y-56390000D01*
X170360000Y-56390000D02*
X182000000Y-44750000D01*
%TO.N,/ROT_9*%
X167900000Y-53850000D02*
X177000000Y-44750000D01*
X160120000Y-53850000D02*
X167900000Y-53850000D01*
%TO.N,/ROT_8*%
X156550000Y-54880000D02*
X160120000Y-51310000D01*
X156550000Y-62575489D02*
X156550000Y-54880000D01*
X155000000Y-64125489D02*
X156550000Y-62575489D01*
X155000000Y-71750000D02*
X155000000Y-64125489D01*
%TO.N,/ROT_7*%
X160120000Y-49003143D02*
X160120000Y-48770000D01*
X150000000Y-59123143D02*
X160120000Y-49003143D01*
X150000000Y-71750000D02*
X150000000Y-59123143D01*
%TO.N,/ROT_6*%
X143310000Y-56390000D02*
X144880000Y-56390000D01*
X127950000Y-71750000D02*
X143310000Y-56390000D01*
%TO.N,/ROT_5*%
X138200978Y-53850000D02*
X144880000Y-53850000D01*
X122950000Y-69100978D02*
X138200978Y-53850000D01*
X122950000Y-71750000D02*
X122950000Y-69100978D01*
%TO.N,/ROT_4*%
X148440000Y-51310000D02*
X144880000Y-51310000D01*
X155000000Y-44750000D02*
X148440000Y-51310000D01*
%TO.N,/ROT_3*%
X145980000Y-48770000D02*
X144880000Y-48770000D01*
X150000000Y-44750000D02*
X145980000Y-48770000D01*
%TO.N,/ROT_1*%
X124480000Y-46230000D02*
X123000000Y-44750000D01*
X144880000Y-46230000D02*
X124480000Y-46230000D01*
%TO.N,/ROT_2*%
X129060000Y-43690000D02*
X128000000Y-44750000D01*
X144880000Y-43690000D02*
X129060000Y-43690000D01*
%TD*%
M02*
