%TF.GenerationSoftware,KiCad,Pcbnew,(6.0.1)*%
%TF.CreationDate,2022-05-09T03:02:38-04:00*%
%TF.ProjectId,RotaryEncoderHorror,526f7461-7279-4456-9e63-6f646572486f,rev?*%
%TF.SameCoordinates,Original*%
%TF.FileFunction,Soldermask,Top*%
%TF.FilePolarity,Negative*%
%FSLAX46Y46*%
G04 Gerber Fmt 4.6, Leading zero omitted, Abs format (unit mm)*
G04 Created by KiCad (PCBNEW (6.0.1)) date 2022-05-09 03:02:38*
%MOMM*%
%LPD*%
G01*
G04 APERTURE LIST*
%ADD10C,2.000000*%
%ADD11R,2.000000X3.200000*%
%ADD12R,2.000000X2.000000*%
%ADD13R,1.600000X1.600000*%
%ADD14C,1.600000*%
G04 APERTURE END LIST*
D10*
%TO.C,SW6*%
X177000000Y-57250000D03*
X182000000Y-57250000D03*
D11*
X185100000Y-64250000D03*
X173900000Y-64250000D03*
D10*
X179500000Y-71750000D03*
X182000000Y-71750000D03*
D12*
X177000000Y-71750000D03*
%TD*%
%TO.C,SW3*%
X122950000Y-71750000D03*
D10*
X127950000Y-71750000D03*
X125450000Y-71750000D03*
D11*
X119850000Y-64250000D03*
X131050000Y-64250000D03*
D10*
X127950000Y-57250000D03*
X122950000Y-57250000D03*
%TD*%
%TO.C,SW4*%
X150000000Y-57250000D03*
X155000000Y-57250000D03*
D11*
X146900000Y-64250000D03*
X158100000Y-64250000D03*
D10*
X152500000Y-71750000D03*
X155000000Y-71750000D03*
D12*
X150000000Y-71750000D03*
%TD*%
%TO.C,SW5*%
X177000000Y-44750000D03*
D10*
X182000000Y-44750000D03*
X179500000Y-44750000D03*
D11*
X185100000Y-37250000D03*
X173900000Y-37250000D03*
D10*
X182000000Y-30250000D03*
X177000000Y-30250000D03*
%TD*%
D12*
%TO.C,SW1*%
X123000000Y-44750000D03*
D10*
X128000000Y-44750000D03*
X125500000Y-44750000D03*
D11*
X119900000Y-37250000D03*
X131100000Y-37250000D03*
D10*
X128000000Y-30250000D03*
X123000000Y-30250000D03*
%TD*%
D12*
%TO.C,SW2*%
X150000000Y-44750000D03*
D10*
X155000000Y-44750000D03*
X152500000Y-44750000D03*
D11*
X158100000Y-37250000D03*
X146900000Y-37250000D03*
D10*
X155000000Y-30250000D03*
X150000000Y-30250000D03*
%TD*%
D13*
%TO.C,U1*%
X160120000Y-33530000D03*
D14*
X160120000Y-36070000D03*
X160120000Y-38610000D03*
X160120000Y-41150000D03*
X160120000Y-43690000D03*
X160120000Y-46230000D03*
X160120000Y-48770000D03*
X160120000Y-51310000D03*
X160120000Y-53850000D03*
X160120000Y-56390000D03*
X160120000Y-58930000D03*
X160120000Y-61470000D03*
X144880000Y-61470000D03*
X144880000Y-58930000D03*
X144880000Y-56390000D03*
X144880000Y-53850000D03*
X144880000Y-51310000D03*
X144880000Y-48770000D03*
X144880000Y-46230000D03*
X144880000Y-43690000D03*
X144880000Y-41150000D03*
X144880000Y-38610000D03*
X144880000Y-36070000D03*
X144880000Y-33530000D03*
%TD*%
M02*
